<?xml version="1.0" encoding="UTF-8"?>
<svg data-bbox="0 0 151 56.6" preserveAspectRatio="xMinYMin" viewBox="0 0 151 56.4" height="56.6" width="151" xmlns="http://www.w3.org/2000/svg" data-type="color">
    <g>
        <path d="M42.5 13.6h6.3c2.7-1.7 5.8-2.7 9.2-2.7s6.6 1 9.2 2.7h7.5V5C70 1.8 64.2 0 58 0c-5.7 0-11 1.5-15.5 4.1v9.5z" fill="#ff773b" data-color="1"/>
        <path d="M101.6 15.9C94.5 9.6 87.4 10 87.4 10c-9.8.1-9.9 6.6-9.9 6.6-.2 2.8 2.3 4.2 3.5 4.9 1.1.5 14 2.8 14 2.8 19.1 2.7 14.6 17.9 14.6 17.9-2.6 10.3-13 14.4-22.1 14.4s-15.9-3.9-15.9-3.9c2-.8 9-7.1 9-7.1 4.2 1.6 7 1.4 7 1.4 4.4.3 10.9-2.2 10.9-6.7 0-4.6-5.5-5.8-5.5-5.8l-8-1.4c-11.4-2.4-13.9-4.9-13.9-4.9-8-5.7-3.9-16.1-3.9-16.1C72.7-.3 86.6.4 86.6.4 98.8.2 108 7.8 108 7.8l-6.4 8.1" fill="#2b3087" data-color="2"/>
        <path d="M29.7 0C13.3 0 0 12.6 0 28.2s13.3 28.2 29.7 28.2 29.7-12.6 29.7-28.2C59.3 12.6 46.1 0 29.7 0m.1 45.8c-9.5 0-17.2-7.8-17.2-17.4S20.3 11 29.8 11 47 18.7 47 28.3c0 9.7-7.7 17.5-17.2 17.5" fill="#2b3087" data-color="2"/>
        <path d="M71.4 39.3c-3.2 3.9-8 6.4-13.4 6.4-9.5 0-17.2-7.8-17.2-17.4 0-3.7 1.1-7.1 3-9.9-2-2.9-4.4-4.5-4.4-4.5-2.1-1.6-4.7-2.3-5.4-2.5-3.6 4.7-5.8 10.5-5.8 16.7 0 15.6 13.3 28.2 29.7 28.2 9.4 0 17.7-4.1 23.1-10.6-5.7-2-9.3-6.1-9.6-6.4" fill="#ff773b" data-color="1"/>
        <path d="M151 43v.5c0 .8-.1 1.5-.3 2.2-.1.5-.2 1-.4 1.5 0 .1-.1.2-.1.3l-.6 1.5c-.4.8-.9 1.6-1.5 2.3-1.5 1.9-3.6 3.4-5.9 4.3-.6.2-1.2.4-1.8.5-1 .2-1.9.3-3 .3-.9 0-1.8-.1-2.6-.3-.6-.1-1.3-.3-1.9-.5-2.4-.9-4.4-2.3-5.9-4.3-.2-.3-.4-.5-.6-.8-.3-.5-.7-1-.9-1.6-.3-.6-.6-1.3-.8-2-.1-.4-.3-.9-.3-1.3-.2-.8-.3-1.6-.3-2.4v-.5c0-.9.1-1.7.3-2.6.1-.6.3-1.1.4-1.7 0-.1.1-.2.1-.3.2-.5.4-1 .7-1.5.4-.8.9-1.6 1.5-2.3 1.5-1.9 3.6-3.4 5.9-4.3.6-.2 1.2-.4 1.9-.5.9-.2 1.9-.3 2.9-.3.9 0 1.8.1 2.7.3.6.1 1.2.3 1.8.5 2.4.9 4.4 2.3 5.9 4.3.2.3.4.5.6.8.3.5.7 1 .9 1.6.3.6.6 1.3.8 2 .1.5.3.9.4 1.4 0 1 .1 2 .1 2.9z" fill="#fffcfa" data-color="3"/>
        <path d="M151 43v.5c0 .8-.1 1.5-.3 2.2h-10.4v10.4c-1 .2-1.9.3-3 .3-.9 0-1.8-.1-2.6-.3V45.7h-10.5c-.2-.8-.3-1.6-.3-2.4v-.5c0-.9.1-1.7.3-2.6h10.5V29.7c.9-.2 1.9-.3 2.9-.3.9 0 1.8.1 2.7.3v10.5h10.4c.2.9.3 1.9.3 2.8z" fill="#cf142b" data-color="4"/>
        <path d="M132.9 48.4v7.2c-2.4-.9-4.4-2.3-5.9-4.3l5.9-2.9z" fill="#00247d" data-color="5"/>
        <path d="m132.4 47.5-6 3c-.3-.5-.7-1-.9-1.6l2.9-1.4h4z" fill="#cf142b" data-color="4"/>
        <path d="M148 51.3c-1.5 1.9-3.6 3.4-5.9 4.3v-7.2l5.9 2.9z" fill="#00247d" data-color="5"/>
        <path d="M132.9 30.2v7.2l-5.9-3c1.5-1.8 3.5-3.3 5.9-4.2z" fill="#00247d" data-color="5"/>
        <path d="m148 34.5-5.9 3v-7.2c2.4.8 4.4 2.3 5.9 4.2z" fill="#00247d" data-color="5"/>
        <path d="m149.6 36.8-2.9 1.4h-4.1l6-3c.4.6.7 1.1 1 1.6z" fill="#cf142b" data-color="4"/>
        <path d="m150.2 47.5-.6 1.5-2.9-1.5h3.5z" fill="#cf142b" data-color="4"/>
        <path d="M128.5 38.3h-3.7c.2-.5.4-1 .7-1.5l3 1.5z" fill="#cf142b" data-color="4"/>
    </g>
</svg>
